<?xml version="1.0" encoding="UTF-8"?>
<svg xmlns="http://www.w3.org/2000/svg" width="920" height="460" viewBox="0 0 920 460" role="img" aria-label="Ratchet ceiling history">
<title>Ratchet ceiling history</title>
<desc>Normalized line chart of lint ratchet ceilings (curly, void, nnnull, dup-imports), Phase-2 type-ratchet out-of-scope errors, and module-boundary ceiling sum over git history.</desc>
<rect width="100%" height="100%" fill="#f7f5f0"/>
<text x="56" y="28" font-family="Georgia, 'Times New Roman', serif" font-size="18" fill="#1a1a1a">Ratchet ceiling history</text>
<text x="56" y="44" font-family="ui-monospace, SFMono-Regular, Menlo, monospace" font-size="11" fill="#555">Each series scaled to its own max (see table for raw counts)</text>
<rect x="56" y="48" width="840" height="316" fill="#fffef9" stroke="#c9c2b4"/>
<line x1="56" y1="48" x2="896" y2="48" stroke="#e4ddd0" stroke-width="1"/>
<text x="48" y="52" text-anchor="end" font-family="ui-monospace, SFMono-Regular, Menlo, monospace" font-size="10" fill="#666">100%</text>
<line x1="56" y1="127" x2="896" y2="127" stroke="#e4ddd0" stroke-width="1"/>
<text x="48" y="131" text-anchor="end" font-family="ui-monospace, SFMono-Regular, Menlo, monospace" font-size="10" fill="#666">75%</text>
<line x1="56" y1="206" x2="896" y2="206" stroke="#e4ddd0" stroke-width="1"/>
<text x="48" y="210" text-anchor="end" font-family="ui-monospace, SFMono-Regular, Menlo, monospace" font-size="10" fill="#666">50%</text>
<line x1="56" y1="285" x2="896" y2="285" stroke="#e4ddd0" stroke-width="1"/>
<text x="48" y="289" text-anchor="end" font-family="ui-monospace, SFMono-Regular, Menlo, monospace" font-size="10" fill="#666">25%</text>
<line x1="56" y1="364" x2="896" y2="364" stroke="#e4ddd0" stroke-width="1"/>
<text x="48" y="368" text-anchor="end" font-family="ui-monospace, SFMono-Regular, Menlo, monospace" font-size="10" fill="#666">0%</text>
<polyline fill="none" stroke="#0b6e4f" stroke-width="2.5" points="84.72,48.00 91.90,48.00 99.08,48.00 106.26,48.00 113.44,48.00 120.62,52.12 127.79,52.12 134.97,52.12 142.15,52.12 149.33,52.12 156.51,52.12 163.69,52.12 170.87,52.12 178.05,52.12 185.23,52.12 192.41,52.12 199.59,52.12 206.77,52.12 213.95,72.31 221.13,72.31 228.31,72.31 235.49,72.31 242.67,72.31 249.85,72.31 257.03,72.31 264.21,72.31 271.38,77.52 278.56,77.52 285.74,77.52 292.92,77.52 300.10,77.52 307.28,120.27 314.46,90.54 321.64,113.76 328.82,89.89 336.00,77.52 343.18,120.27 350.36,133.29 357.54,169.54 364.72,169.54 371.90,169.54 379.08,169.54 386.26,169.54 393.44,169.54 400.62,181.91 407.79,247.02 414.97,247.02 422.15,247.02 429.33,247.02 436.51,225.32 443.69,247.02 450.87,247.02 458.05,225.32 465.23,234.87 472.41,247.24 479.59,247.24 486.77,233.56 493.95,225.32 501.13,225.32 508.31,225.32 515.49,225.32 522.67,225.32 529.85,234.87 537.03,234.87 544.21,234.87 551.38,238.77 558.56,234.87 565.74,234.87 572.92,234.87 580.10,234.87 587.28,234.87 594.46,247.24 601.64,234.87 608.82,234.87 616.00,234.87 623.18,234.87 630.36,238.77 637.54,238.77 644.72,238.77 651.90,238.77 659.08,238.77 666.26,238.77 673.44,247.02 680.62,247.02 687.79,247.02 694.97,247.02 702.15,247.02 709.33,247.02 716.51,247.02 723.69,247.02 730.87,247.02 738.05,247.02 745.23,247.02 752.41,247.24 759.59,247.02 766.77,247.02 773.95,247.24 781.13,247.24 788.31,247.24 795.49,247.24 802.67,247.24 809.85,247.24 817.03,247.24 824.21,247.24 831.38,247.24 838.56,247.24 845.74,247.24 852.92,247.24 860.10,247.24 867.28,247.24 874.46,247.24 881.64,247.24 888.82,247.24 896.00,247.24"/>
<circle cx="84.72" cy="48.00" r="3" fill="#0b6e4f"/>
<circle cx="91.90" cy="48.00" r="3" fill="#0b6e4f"/>
<circle cx="99.08" cy="48.00" r="3" fill="#0b6e4f"/>
<circle cx="106.26" cy="48.00" r="3" fill="#0b6e4f"/>
<circle cx="113.44" cy="48.00" r="3" fill="#0b6e4f"/>
<circle cx="120.62" cy="52.12" r="3" fill="#0b6e4f"/>
<circle cx="127.79" cy="52.12" r="3" fill="#0b6e4f"/>
<circle cx="134.97" cy="52.12" r="3" fill="#0b6e4f"/>
<circle cx="142.15" cy="52.12" r="3" fill="#0b6e4f"/>
<circle cx="149.33" cy="52.12" r="3" fill="#0b6e4f"/>
<circle cx="156.51" cy="52.12" r="3" fill="#0b6e4f"/>
<circle cx="163.69" cy="52.12" r="3" fill="#0b6e4f"/>
<circle cx="170.87" cy="52.12" r="3" fill="#0b6e4f"/>
<circle cx="178.05" cy="52.12" r="3" fill="#0b6e4f"/>
<circle cx="185.23" cy="52.12" r="3" fill="#0b6e4f"/>
<circle cx="192.41" cy="52.12" r="3" fill="#0b6e4f"/>
<circle cx="199.59" cy="52.12" r="3" fill="#0b6e4f"/>
<circle cx="206.77" cy="52.12" r="3" fill="#0b6e4f"/>
<circle cx="213.95" cy="72.31" r="3" fill="#0b6e4f"/>
<circle cx="221.13" cy="72.31" r="3" fill="#0b6e4f"/>
<circle cx="228.31" cy="72.31" r="3" fill="#0b6e4f"/>
<circle cx="235.49" cy="72.31" r="3" fill="#0b6e4f"/>
<circle cx="242.67" cy="72.31" r="3" fill="#0b6e4f"/>
<circle cx="249.85" cy="72.31" r="3" fill="#0b6e4f"/>
<circle cx="257.03" cy="72.31" r="3" fill="#0b6e4f"/>
<circle cx="264.21" cy="72.31" r="3" fill="#0b6e4f"/>
<circle cx="271.38" cy="77.52" r="3" fill="#0b6e4f"/>
<circle cx="278.56" cy="77.52" r="3" fill="#0b6e4f"/>
<circle cx="285.74" cy="77.52" r="3" fill="#0b6e4f"/>
<circle cx="292.92" cy="77.52" r="3" fill="#0b6e4f"/>
<circle cx="300.10" cy="77.52" r="3" fill="#0b6e4f"/>
<circle cx="307.28" cy="120.27" r="3" fill="#0b6e4f"/>
<circle cx="314.46" cy="90.54" r="3" fill="#0b6e4f"/>
<circle cx="321.64" cy="113.76" r="3" fill="#0b6e4f"/>
<circle cx="328.82" cy="89.89" r="3" fill="#0b6e4f"/>
<circle cx="336.00" cy="77.52" r="3" fill="#0b6e4f"/>
<circle cx="343.18" cy="120.27" r="3" fill="#0b6e4f"/>
<circle cx="350.36" cy="133.29" r="3" fill="#0b6e4f"/>
<circle cx="357.54" cy="169.54" r="3" fill="#0b6e4f"/>
<circle cx="364.72" cy="169.54" r="3" fill="#0b6e4f"/>
<circle cx="371.90" cy="169.54" r="3" fill="#0b6e4f"/>
<circle cx="379.08" cy="169.54" r="3" fill="#0b6e4f"/>
<circle cx="386.26" cy="169.54" r="3" fill="#0b6e4f"/>
<circle cx="393.44" cy="169.54" r="3" fill="#0b6e4f"/>
<circle cx="400.62" cy="181.91" r="3" fill="#0b6e4f"/>
<circle cx="407.79" cy="247.02" r="3" fill="#0b6e4f"/>
<circle cx="414.97" cy="247.02" r="3" fill="#0b6e4f"/>
<circle cx="422.15" cy="247.02" r="3" fill="#0b6e4f"/>
<circle cx="429.33" cy="247.02" r="3" fill="#0b6e4f"/>
<circle cx="436.51" cy="225.32" r="3" fill="#0b6e4f"/>
<circle cx="443.69" cy="247.02" r="3" fill="#0b6e4f"/>
<circle cx="450.87" cy="247.02" r="3" fill="#0b6e4f"/>
<circle cx="458.05" cy="225.32" r="3" fill="#0b6e4f"/>
<circle cx="465.23" cy="234.87" r="3" fill="#0b6e4f"/>
<circle cx="472.41" cy="247.24" r="3" fill="#0b6e4f"/>
<circle cx="479.59" cy="247.24" r="3" fill="#0b6e4f"/>
<circle cx="486.77" cy="233.56" r="3" fill="#0b6e4f"/>
<circle cx="493.95" cy="225.32" r="3" fill="#0b6e4f"/>
<circle cx="501.13" cy="225.32" r="3" fill="#0b6e4f"/>
<circle cx="508.31" cy="225.32" r="3" fill="#0b6e4f"/>
<circle cx="515.49" cy="225.32" r="3" fill="#0b6e4f"/>
<circle cx="522.67" cy="225.32" r="3" fill="#0b6e4f"/>
<circle cx="529.85" cy="234.87" r="3" fill="#0b6e4f"/>
<circle cx="537.03" cy="234.87" r="3" fill="#0b6e4f"/>
<circle cx="544.21" cy="234.87" r="3" fill="#0b6e4f"/>
<circle cx="551.38" cy="238.77" r="3" fill="#0b6e4f"/>
<circle cx="558.56" cy="234.87" r="3" fill="#0b6e4f"/>
<circle cx="565.74" cy="234.87" r="3" fill="#0b6e4f"/>
<circle cx="572.92" cy="234.87" r="3" fill="#0b6e4f"/>
<circle cx="580.10" cy="234.87" r="3" fill="#0b6e4f"/>
<circle cx="587.28" cy="234.87" r="3" fill="#0b6e4f"/>
<circle cx="594.46" cy="247.24" r="3" fill="#0b6e4f"/>
<circle cx="601.64" cy="234.87" r="3" fill="#0b6e4f"/>
<circle cx="608.82" cy="234.87" r="3" fill="#0b6e4f"/>
<circle cx="616.00" cy="234.87" r="3" fill="#0b6e4f"/>
<circle cx="623.18" cy="234.87" r="3" fill="#0b6e4f"/>
<circle cx="630.36" cy="238.77" r="3" fill="#0b6e4f"/>
<circle cx="637.54" cy="238.77" r="3" fill="#0b6e4f"/>
<circle cx="644.72" cy="238.77" r="3" fill="#0b6e4f"/>
<circle cx="651.90" cy="238.77" r="3" fill="#0b6e4f"/>
<circle cx="659.08" cy="238.77" r="3" fill="#0b6e4f"/>
<circle cx="666.26" cy="238.77" r="3" fill="#0b6e4f"/>
<circle cx="673.44" cy="247.02" r="3" fill="#0b6e4f"/>
<circle cx="680.62" cy="247.02" r="3" fill="#0b6e4f"/>
<circle cx="687.79" cy="247.02" r="3" fill="#0b6e4f"/>
<circle cx="694.97" cy="247.02" r="3" fill="#0b6e4f"/>
<circle cx="702.15" cy="247.02" r="3" fill="#0b6e4f"/>
<circle cx="709.33" cy="247.02" r="3" fill="#0b6e4f"/>
<circle cx="716.51" cy="247.02" r="3" fill="#0b6e4f"/>
<circle cx="723.69" cy="247.02" r="3" fill="#0b6e4f"/>
<circle cx="730.87" cy="247.02" r="3" fill="#0b6e4f"/>
<circle cx="738.05" cy="247.02" r="3" fill="#0b6e4f"/>
<circle cx="745.23" cy="247.02" r="3" fill="#0b6e4f"/>
<circle cx="752.41" cy="247.24" r="3" fill="#0b6e4f"/>
<circle cx="759.59" cy="247.02" r="3" fill="#0b6e4f"/>
<circle cx="766.77" cy="247.02" r="3" fill="#0b6e4f"/>
<circle cx="773.95" cy="247.24" r="3" fill="#0b6e4f"/>
<circle cx="781.13" cy="247.24" r="3" fill="#0b6e4f"/>
<circle cx="788.31" cy="247.24" r="3" fill="#0b6e4f"/>
<circle cx="795.49" cy="247.24" r="3" fill="#0b6e4f"/>
<circle cx="802.67" cy="247.24" r="3" fill="#0b6e4f"/>
<circle cx="809.85" cy="247.24" r="3" fill="#0b6e4f"/>
<circle cx="817.03" cy="247.24" r="3" fill="#0b6e4f"/>
<circle cx="824.21" cy="247.24" r="3" fill="#0b6e4f"/>
<circle cx="831.38" cy="247.24" r="3" fill="#0b6e4f"/>
<circle cx="838.56" cy="247.24" r="3" fill="#0b6e4f"/>
<circle cx="845.74" cy="247.24" r="3" fill="#0b6e4f"/>
<circle cx="852.92" cy="247.24" r="3" fill="#0b6e4f"/>
<circle cx="860.10" cy="247.24" r="3" fill="#0b6e4f"/>
<circle cx="867.28" cy="247.24" r="3" fill="#0b6e4f"/>
<circle cx="874.46" cy="247.24" r="3" fill="#0b6e4f"/>
<circle cx="881.64" cy="247.24" r="3" fill="#0b6e4f"/>
<circle cx="888.82" cy="247.24" r="3" fill="#0b6e4f"/>
<circle cx="896.00" cy="247.24" r="3" fill="#0b6e4f"/>
<polyline fill="none" stroke="#8b1e3f" stroke-width="2.5" points="407.79,56.24 414.97,56.24 422.15,56.24 429.33,56.24 436.51,56.24 443.69,112.57 450.87,112.57 458.05,112.57 465.23,112.57 472.41,112.57 479.59,112.57 486.77,112.57 493.95,112.57 501.13,112.57 508.31,48.00 515.49,48.00 522.67,48.00 529.85,48.00 537.03,48.00 544.21,48.00 551.38,48.00 558.56,48.00 565.74,48.00 572.92,48.00 580.10,48.00 587.28,48.00 594.46,182.64 601.64,48.00 608.82,50.75 616.00,50.75 623.18,50.75 630.36,50.75 637.54,50.75 644.72,56.24 651.90,56.24 659.08,56.24 666.26,56.24 673.44,56.24 680.62,56.24 687.79,56.24 694.97,56.24 702.15,56.24 709.33,56.24 716.51,56.24 723.69,56.24 730.87,111.20 738.05,112.57 745.23,112.57 752.41,112.57 759.59,112.57 766.77,112.57 773.95,112.57 781.13,112.57 788.31,112.57 795.49,112.57 802.67,112.57 809.85,112.57 817.03,112.57 824.21,112.57 831.38,112.57 838.56,112.57 845.74,112.57 852.92,112.57 860.10,112.57 867.28,182.64 874.46,112.57 881.64,112.57 888.82,182.64 896.00,201.88"/>
<circle cx="407.79" cy="56.24" r="3" fill="#8b1e3f"/>
<circle cx="414.97" cy="56.24" r="3" fill="#8b1e3f"/>
<circle cx="422.15" cy="56.24" r="3" fill="#8b1e3f"/>
<circle cx="429.33" cy="56.24" r="3" fill="#8b1e3f"/>
<circle cx="436.51" cy="56.24" r="3" fill="#8b1e3f"/>
<circle cx="443.69" cy="112.57" r="3" fill="#8b1e3f"/>
<circle cx="450.87" cy="112.57" r="3" fill="#8b1e3f"/>
<circle cx="458.05" cy="112.57" r="3" fill="#8b1e3f"/>
<circle cx="465.23" cy="112.57" r="3" fill="#8b1e3f"/>
<circle cx="472.41" cy="112.57" r="3" fill="#8b1e3f"/>
<circle cx="479.59" cy="112.57" r="3" fill="#8b1e3f"/>
<circle cx="486.77" cy="112.57" r="3" fill="#8b1e3f"/>
<circle cx="493.95" cy="112.57" r="3" fill="#8b1e3f"/>
<circle cx="501.13" cy="112.57" r="3" fill="#8b1e3f"/>
<circle cx="508.31" cy="48.00" r="3" fill="#8b1e3f"/>
<circle cx="515.49" cy="48.00" r="3" fill="#8b1e3f"/>
<circle cx="522.67" cy="48.00" r="3" fill="#8b1e3f"/>
<circle cx="529.85" cy="48.00" r="3" fill="#8b1e3f"/>
<circle cx="537.03" cy="48.00" r="3" fill="#8b1e3f"/>
<circle cx="544.21" cy="48.00" r="3" fill="#8b1e3f"/>
<circle cx="551.38" cy="48.00" r="3" fill="#8b1e3f"/>
<circle cx="558.56" cy="48.00" r="3" fill="#8b1e3f"/>
<circle cx="565.74" cy="48.00" r="3" fill="#8b1e3f"/>
<circle cx="572.92" cy="48.00" r="3" fill="#8b1e3f"/>
<circle cx="580.10" cy="48.00" r="3" fill="#8b1e3f"/>
<circle cx="587.28" cy="48.00" r="3" fill="#8b1e3f"/>
<circle cx="594.46" cy="182.64" r="3" fill="#8b1e3f"/>
<circle cx="601.64" cy="48.00" r="3" fill="#8b1e3f"/>
<circle cx="608.82" cy="50.75" r="3" fill="#8b1e3f"/>
<circle cx="616.00" cy="50.75" r="3" fill="#8b1e3f"/>
<circle cx="623.18" cy="50.75" r="3" fill="#8b1e3f"/>
<circle cx="630.36" cy="50.75" r="3" fill="#8b1e3f"/>
<circle cx="637.54" cy="50.75" r="3" fill="#8b1e3f"/>
<circle cx="644.72" cy="56.24" r="3" fill="#8b1e3f"/>
<circle cx="651.90" cy="56.24" r="3" fill="#8b1e3f"/>
<circle cx="659.08" cy="56.24" r="3" fill="#8b1e3f"/>
<circle cx="666.26" cy="56.24" r="3" fill="#8b1e3f"/>
<circle cx="673.44" cy="56.24" r="3" fill="#8b1e3f"/>
<circle cx="680.62" cy="56.24" r="3" fill="#8b1e3f"/>
<circle cx="687.79" cy="56.24" r="3" fill="#8b1e3f"/>
<circle cx="694.97" cy="56.24" r="3" fill="#8b1e3f"/>
<circle cx="702.15" cy="56.24" r="3" fill="#8b1e3f"/>
<circle cx="709.33" cy="56.24" r="3" fill="#8b1e3f"/>
<circle cx="716.51" cy="56.24" r="3" fill="#8b1e3f"/>
<circle cx="723.69" cy="56.24" r="3" fill="#8b1e3f"/>
<circle cx="730.87" cy="111.20" r="3" fill="#8b1e3f"/>
<circle cx="738.05" cy="112.57" r="3" fill="#8b1e3f"/>
<circle cx="745.23" cy="112.57" r="3" fill="#8b1e3f"/>
<circle cx="752.41" cy="112.57" r="3" fill="#8b1e3f"/>
<circle cx="759.59" cy="112.57" r="3" fill="#8b1e3f"/>
<circle cx="766.77" cy="112.57" r="3" fill="#8b1e3f"/>
<circle cx="773.95" cy="112.57" r="3" fill="#8b1e3f"/>
<circle cx="781.13" cy="112.57" r="3" fill="#8b1e3f"/>
<circle cx="788.31" cy="112.57" r="3" fill="#8b1e3f"/>
<circle cx="795.49" cy="112.57" r="3" fill="#8b1e3f"/>
<circle cx="802.67" cy="112.57" r="3" fill="#8b1e3f"/>
<circle cx="809.85" cy="112.57" r="3" fill="#8b1e3f"/>
<circle cx="817.03" cy="112.57" r="3" fill="#8b1e3f"/>
<circle cx="824.21" cy="112.57" r="3" fill="#8b1e3f"/>
<circle cx="831.38" cy="112.57" r="3" fill="#8b1e3f"/>
<circle cx="838.56" cy="112.57" r="3" fill="#8b1e3f"/>
<circle cx="845.74" cy="112.57" r="3" fill="#8b1e3f"/>
<circle cx="852.92" cy="112.57" r="3" fill="#8b1e3f"/>
<circle cx="860.10" cy="112.57" r="3" fill="#8b1e3f"/>
<circle cx="867.28" cy="182.64" r="3" fill="#8b1e3f"/>
<circle cx="874.46" cy="112.57" r="3" fill="#8b1e3f"/>
<circle cx="881.64" cy="112.57" r="3" fill="#8b1e3f"/>
<circle cx="888.82" cy="182.64" r="3" fill="#8b1e3f"/>
<circle cx="896.00" cy="201.88" r="3" fill="#8b1e3f"/>
<polyline fill="none" stroke="#5c4d7a" stroke-width="2.5" points="336.00,48.00 343.18,48.00 350.36,48.00 357.54,48.00 364.72,48.00 371.90,48.00 379.08,48.00 386.26,48.00 393.44,48.00 400.62,48.00 407.79,89.64 414.97,89.64 422.15,89.64 429.33,89.64 436.51,48.00 443.69,108.42 450.87,108.42 458.05,48.00 465.23,48.00 472.41,145.17 479.59,145.17 486.77,48.00 493.95,48.00 501.13,82.29 508.31,48.00 515.49,48.00 522.67,48.00 529.85,48.00 537.03,48.00 544.21,48.00 551.38,48.00 558.56,48.00 565.74,48.00 572.92,66.78 580.10,48.00 587.28,48.00 594.46,156.60 601.64,48.00 608.82,48.00 616.00,48.00 623.18,48.00 630.36,48.00 637.54,48.00 644.72,55.35 651.90,55.35 659.08,55.35 666.26,55.35 673.44,55.35 680.62,55.35 687.79,89.64 694.97,89.64 702.15,89.64 709.33,89.64 716.51,108.42 723.69,108.42 730.87,108.42 738.05,108.42 745.23,108.42 752.41,108.42 759.59,145.17 766.77,108.42 773.95,108.42 781.13,108.42 788.31,145.17 795.49,145.17 802.67,145.17 809.85,145.17 817.03,145.17 824.21,145.17 831.38,145.17 838.56,145.17 845.74,145.17 852.92,145.17 860.10,145.17 867.28,145.17 874.46,156.60 881.64,145.17 888.82,156.60 896.00,156.60"/>
<circle cx="336.00" cy="48.00" r="3" fill="#5c4d7a"/>
<circle cx="343.18" cy="48.00" r="3" fill="#5c4d7a"/>
<circle cx="350.36" cy="48.00" r="3" fill="#5c4d7a"/>
<circle cx="357.54" cy="48.00" r="3" fill="#5c4d7a"/>
<circle cx="364.72" cy="48.00" r="3" fill="#5c4d7a"/>
<circle cx="371.90" cy="48.00" r="3" fill="#5c4d7a"/>
<circle cx="379.08" cy="48.00" r="3" fill="#5c4d7a"/>
<circle cx="386.26" cy="48.00" r="3" fill="#5c4d7a"/>
<circle cx="393.44" cy="48.00" r="3" fill="#5c4d7a"/>
<circle cx="400.62" cy="48.00" r="3" fill="#5c4d7a"/>
<circle cx="407.79" cy="89.64" r="3" fill="#5c4d7a"/>
<circle cx="414.97" cy="89.64" r="3" fill="#5c4d7a"/>
<circle cx="422.15" cy="89.64" r="3" fill="#5c4d7a"/>
<circle cx="429.33" cy="89.64" r="3" fill="#5c4d7a"/>
<circle cx="436.51" cy="48.00" r="3" fill="#5c4d7a"/>
<circle cx="443.69" cy="108.42" r="3" fill="#5c4d7a"/>
<circle cx="450.87" cy="108.42" r="3" fill="#5c4d7a"/>
<circle cx="458.05" cy="48.00" r="3" fill="#5c4d7a"/>
<circle cx="465.23" cy="48.00" r="3" fill="#5c4d7a"/>
<circle cx="472.41" cy="145.17" r="3" fill="#5c4d7a"/>
<circle cx="479.59" cy="145.17" r="3" fill="#5c4d7a"/>
<circle cx="486.77" cy="48.00" r="3" fill="#5c4d7a"/>
<circle cx="493.95" cy="48.00" r="3" fill="#5c4d7a"/>
<circle cx="501.13" cy="82.29" r="3" fill="#5c4d7a"/>
<circle cx="508.31" cy="48.00" r="3" fill="#5c4d7a"/>
<circle cx="515.49" cy="48.00" r="3" fill="#5c4d7a"/>
<circle cx="522.67" cy="48.00" r="3" fill="#5c4d7a"/>
<circle cx="529.85" cy="48.00" r="3" fill="#5c4d7a"/>
<circle cx="537.03" cy="48.00" r="3" fill="#5c4d7a"/>
<circle cx="544.21" cy="48.00" r="3" fill="#5c4d7a"/>
<circle cx="551.38" cy="48.00" r="3" fill="#5c4d7a"/>
<circle cx="558.56" cy="48.00" r="3" fill="#5c4d7a"/>
<circle cx="565.74" cy="48.00" r="3" fill="#5c4d7a"/>
<circle cx="572.92" cy="66.78" r="3" fill="#5c4d7a"/>
<circle cx="580.10" cy="48.00" r="3" fill="#5c4d7a"/>
<circle cx="587.28" cy="48.00" r="3" fill="#5c4d7a"/>
<circle cx="594.46" cy="156.60" r="3" fill="#5c4d7a"/>
<circle cx="601.64" cy="48.00" r="3" fill="#5c4d7a"/>
<circle cx="608.82" cy="48.00" r="3" fill="#5c4d7a"/>
<circle cx="616.00" cy="48.00" r="3" fill="#5c4d7a"/>
<circle cx="623.18" cy="48.00" r="3" fill="#5c4d7a"/>
<circle cx="630.36" cy="48.00" r="3" fill="#5c4d7a"/>
<circle cx="637.54" cy="48.00" r="3" fill="#5c4d7a"/>
<circle cx="644.72" cy="55.35" r="3" fill="#5c4d7a"/>
<circle cx="651.90" cy="55.35" r="3" fill="#5c4d7a"/>
<circle cx="659.08" cy="55.35" r="3" fill="#5c4d7a"/>
<circle cx="666.26" cy="55.35" r="3" fill="#5c4d7a"/>
<circle cx="673.44" cy="55.35" r="3" fill="#5c4d7a"/>
<circle cx="680.62" cy="55.35" r="3" fill="#5c4d7a"/>
<circle cx="687.79" cy="89.64" r="3" fill="#5c4d7a"/>
<circle cx="694.97" cy="89.64" r="3" fill="#5c4d7a"/>
<circle cx="702.15" cy="89.64" r="3" fill="#5c4d7a"/>
<circle cx="709.33" cy="89.64" r="3" fill="#5c4d7a"/>
<circle cx="716.51" cy="108.42" r="3" fill="#5c4d7a"/>
<circle cx="723.69" cy="108.42" r="3" fill="#5c4d7a"/>
<circle cx="730.87" cy="108.42" r="3" fill="#5c4d7a"/>
<circle cx="738.05" cy="108.42" r="3" fill="#5c4d7a"/>
<circle cx="745.23" cy="108.42" r="3" fill="#5c4d7a"/>
<circle cx="752.41" cy="108.42" r="3" fill="#5c4d7a"/>
<circle cx="759.59" cy="145.17" r="3" fill="#5c4d7a"/>
<circle cx="766.77" cy="108.42" r="3" fill="#5c4d7a"/>
<circle cx="773.95" cy="108.42" r="3" fill="#5c4d7a"/>
<circle cx="781.13" cy="108.42" r="3" fill="#5c4d7a"/>
<circle cx="788.31" cy="145.17" r="3" fill="#5c4d7a"/>
<circle cx="795.49" cy="145.17" r="3" fill="#5c4d7a"/>
<circle cx="802.67" cy="145.17" r="3" fill="#5c4d7a"/>
<circle cx="809.85" cy="145.17" r="3" fill="#5c4d7a"/>
<circle cx="817.03" cy="145.17" r="3" fill="#5c4d7a"/>
<circle cx="824.21" cy="145.17" r="3" fill="#5c4d7a"/>
<circle cx="831.38" cy="145.17" r="3" fill="#5c4d7a"/>
<circle cx="838.56" cy="145.17" r="3" fill="#5c4d7a"/>
<circle cx="845.74" cy="145.17" r="3" fill="#5c4d7a"/>
<circle cx="852.92" cy="145.17" r="3" fill="#5c4d7a"/>
<circle cx="860.10" cy="145.17" r="3" fill="#5c4d7a"/>
<circle cx="867.28" cy="145.17" r="3" fill="#5c4d7a"/>
<circle cx="874.46" cy="156.60" r="3" fill="#5c4d7a"/>
<circle cx="881.64" cy="145.17" r="3" fill="#5c4d7a"/>
<circle cx="888.82" cy="156.60" r="3" fill="#5c4d7a"/>
<circle cx="896.00" cy="156.60" r="3" fill="#5c4d7a"/>
<polyline fill="none" stroke="#2a6f97" stroke-width="2.5" points="407.79,53.10 414.97,53.10 422.15,53.10 429.33,53.10 436.51,53.10 443.69,53.10 450.87,53.10 458.05,53.10 465.23,53.10 472.41,53.10 479.59,53.10 486.77,53.10 493.95,48.00 501.13,48.00 508.31,48.00 515.49,48.00 522.67,48.00 529.85,48.00 537.03,48.00 544.21,48.00 551.38,48.00 558.56,48.00 565.74,48.00 572.92,48.00 580.10,48.00 587.28,48.00 594.46,96.42 601.64,96.42 608.82,96.42 616.00,96.42 623.18,96.42 630.36,96.42 637.54,96.42 644.72,96.42 651.90,48.00 659.08,53.10 666.26,53.10 673.44,53.10 680.62,53.10 687.79,53.10 694.97,53.10 702.15,53.10 709.33,53.10 716.51,53.10 723.69,53.10 730.87,53.10 738.05,53.10 745.23,53.10 752.41,53.10 759.59,53.10 766.77,53.10 773.95,53.10 781.13,53.10 788.31,53.10 795.49,53.10 802.67,53.10 809.85,53.10 817.03,53.10 824.21,53.10 831.38,53.10 838.56,53.10 845.74,53.10 852.92,53.10 860.10,53.10 867.28,53.10 874.46,53.10 881.64,96.42 888.82,111.71 896.00,111.71"/>
<circle cx="407.79" cy="53.10" r="3" fill="#2a6f97"/>
<circle cx="414.97" cy="53.10" r="3" fill="#2a6f97"/>
<circle cx="422.15" cy="53.10" r="3" fill="#2a6f97"/>
<circle cx="429.33" cy="53.10" r="3" fill="#2a6f97"/>
<circle cx="436.51" cy="53.10" r="3" fill="#2a6f97"/>
<circle cx="443.69" cy="53.10" r="3" fill="#2a6f97"/>
<circle cx="450.87" cy="53.10" r="3" fill="#2a6f97"/>
<circle cx="458.05" cy="53.10" r="3" fill="#2a6f97"/>
<circle cx="465.23" cy="53.10" r="3" fill="#2a6f97"/>
<circle cx="472.41" cy="53.10" r="3" fill="#2a6f97"/>
<circle cx="479.59" cy="53.10" r="3" fill="#2a6f97"/>
<circle cx="486.77" cy="53.10" r="3" fill="#2a6f97"/>
<circle cx="493.95" cy="48.00" r="3" fill="#2a6f97"/>
<circle cx="501.13" cy="48.00" r="3" fill="#2a6f97"/>
<circle cx="508.31" cy="48.00" r="3" fill="#2a6f97"/>
<circle cx="515.49" cy="48.00" r="3" fill="#2a6f97"/>
<circle cx="522.67" cy="48.00" r="3" fill="#2a6f97"/>
<circle cx="529.85" cy="48.00" r="3" fill="#2a6f97"/>
<circle cx="537.03" cy="48.00" r="3" fill="#2a6f97"/>
<circle cx="544.21" cy="48.00" r="3" fill="#2a6f97"/>
<circle cx="551.38" cy="48.00" r="3" fill="#2a6f97"/>
<circle cx="558.56" cy="48.00" r="3" fill="#2a6f97"/>
<circle cx="565.74" cy="48.00" r="3" fill="#2a6f97"/>
<circle cx="572.92" cy="48.00" r="3" fill="#2a6f97"/>
<circle cx="580.10" cy="48.00" r="3" fill="#2a6f97"/>
<circle cx="587.28" cy="48.00" r="3" fill="#2a6f97"/>
<circle cx="594.46" cy="96.42" r="3" fill="#2a6f97"/>
<circle cx="601.64" cy="96.42" r="3" fill="#2a6f97"/>
<circle cx="608.82" cy="96.42" r="3" fill="#2a6f97"/>
<circle cx="616.00" cy="96.42" r="3" fill="#2a6f97"/>
<circle cx="623.18" cy="96.42" r="3" fill="#2a6f97"/>
<circle cx="630.36" cy="96.42" r="3" fill="#2a6f97"/>
<circle cx="637.54" cy="96.42" r="3" fill="#2a6f97"/>
<circle cx="644.72" cy="96.42" r="3" fill="#2a6f97"/>
<circle cx="651.90" cy="48.00" r="3" fill="#2a6f97"/>
<circle cx="659.08" cy="53.10" r="3" fill="#2a6f97"/>
<circle cx="666.26" cy="53.10" r="3" fill="#2a6f97"/>
<circle cx="673.44" cy="53.10" r="3" fill="#2a6f97"/>
<circle cx="680.62" cy="53.10" r="3" fill="#2a6f97"/>
<circle cx="687.79" cy="53.10" r="3" fill="#2a6f97"/>
<circle cx="694.97" cy="53.10" r="3" fill="#2a6f97"/>
<circle cx="702.15" cy="53.10" r="3" fill="#2a6f97"/>
<circle cx="709.33" cy="53.10" r="3" fill="#2a6f97"/>
<circle cx="716.51" cy="53.10" r="3" fill="#2a6f97"/>
<circle cx="723.69" cy="53.10" r="3" fill="#2a6f97"/>
<circle cx="730.87" cy="53.10" r="3" fill="#2a6f97"/>
<circle cx="738.05" cy="53.10" r="3" fill="#2a6f97"/>
<circle cx="745.23" cy="53.10" r="3" fill="#2a6f97"/>
<circle cx="752.41" cy="53.10" r="3" fill="#2a6f97"/>
<circle cx="759.59" cy="53.10" r="3" fill="#2a6f97"/>
<circle cx="766.77" cy="53.10" r="3" fill="#2a6f97"/>
<circle cx="773.95" cy="53.10" r="3" fill="#2a6f97"/>
<circle cx="781.13" cy="53.10" r="3" fill="#2a6f97"/>
<circle cx="788.31" cy="53.10" r="3" fill="#2a6f97"/>
<circle cx="795.49" cy="53.10" r="3" fill="#2a6f97"/>
<circle cx="802.67" cy="53.10" r="3" fill="#2a6f97"/>
<circle cx="809.85" cy="53.10" r="3" fill="#2a6f97"/>
<circle cx="817.03" cy="53.10" r="3" fill="#2a6f97"/>
<circle cx="824.21" cy="53.10" r="3" fill="#2a6f97"/>
<circle cx="831.38" cy="53.10" r="3" fill="#2a6f97"/>
<circle cx="838.56" cy="53.10" r="3" fill="#2a6f97"/>
<circle cx="845.74" cy="53.10" r="3" fill="#2a6f97"/>
<circle cx="852.92" cy="53.10" r="3" fill="#2a6f97"/>
<circle cx="860.10" cy="53.10" r="3" fill="#2a6f97"/>
<circle cx="867.28" cy="53.10" r="3" fill="#2a6f97"/>
<circle cx="874.46" cy="53.10" r="3" fill="#2a6f97"/>
<circle cx="881.64" cy="96.42" r="3" fill="#2a6f97"/>
<circle cx="888.82" cy="111.71" r="3" fill="#2a6f97"/>
<circle cx="896.00" cy="111.71" r="3" fill="#2a6f97"/>
<polyline fill="none" stroke="#1d4e89" stroke-width="2.5" points="56.00,48.00 63.18,48.00 70.36,48.00 77.54,73.77 84.72,73.77 91.90,72.65 99.08,72.65 106.26,72.65 113.44,121.40 120.62,121.40 127.79,115.79 134.97,115.79 142.15,121.40 149.33,111.87 156.51,111.87 163.69,164.54 170.87,203.76 178.05,155.01 185.23,240.74 192.41,240.74 199.59,364.00 206.77,203.76 213.95,203.76 221.13,240.74 228.31,240.74 235.49,242.98 242.67,242.98 249.85,240.74 257.03,242.98 264.21,242.98 271.38,242.98 278.56,242.98 285.74,242.98 292.92,242.98 300.10,242.98 307.28,242.98 314.46,242.98 321.64,242.98 328.82,242.98 336.00,242.98 343.18,242.98 350.36,242.98 357.54,242.98 364.72,242.98 371.90,242.98 379.08,242.98 386.26,242.98 393.44,242.98 400.62,242.98 407.79,242.98 414.97,242.98 422.15,242.98 429.33,242.98 436.51,242.98 443.69,242.98 450.87,242.98 458.05,242.98 465.23,242.98 472.41,242.98 479.59,242.98 486.77,242.98 493.95,242.98 501.13,242.98 508.31,242.98 515.49,242.98 522.67,242.98 529.85,242.98 537.03,242.98 544.21,242.98 551.38,242.98 558.56,242.98 565.74,242.98 572.92,242.98 580.10,242.98 587.28,242.98 594.46,242.98 601.64,242.98 608.82,242.98 616.00,242.98 623.18,242.98 630.36,242.98 637.54,242.98 644.72,242.98 651.90,242.98 659.08,242.98 666.26,242.98 673.44,242.98 680.62,242.98 687.79,242.98 694.97,242.98 702.15,242.98 709.33,242.98 716.51,242.98 723.69,242.98 730.87,242.98 738.05,242.98 745.23,242.98 752.41,242.98 759.59,242.98 766.77,242.98 773.95,242.98 781.13,242.98 788.31,242.98 795.49,242.98 802.67,242.98 809.85,242.98 817.03,242.98 824.21,242.98 831.38,242.98 838.56,242.98 845.74,242.98 852.92,242.98 860.10,242.98 867.28,242.98 874.46,242.98 881.64,242.98 888.82,242.98 896.00,242.98"/>
<circle cx="56.00" cy="48.00" r="3" fill="#1d4e89"/>
<circle cx="63.18" cy="48.00" r="3" fill="#1d4e89"/>
<circle cx="70.36" cy="48.00" r="3" fill="#1d4e89"/>
<circle cx="77.54" cy="73.77" r="3" fill="#1d4e89"/>
<circle cx="84.72" cy="73.77" r="3" fill="#1d4e89"/>
<circle cx="91.90" cy="72.65" r="3" fill="#1d4e89"/>
<circle cx="99.08" cy="72.65" r="3" fill="#1d4e89"/>
<circle cx="106.26" cy="72.65" r="3" fill="#1d4e89"/>
<circle cx="113.44" cy="121.40" r="3" fill="#1d4e89"/>
<circle cx="120.62" cy="121.40" r="3" fill="#1d4e89"/>
<circle cx="127.79" cy="115.79" r="3" fill="#1d4e89"/>
<circle cx="134.97" cy="115.79" r="3" fill="#1d4e89"/>
<circle cx="142.15" cy="121.40" r="3" fill="#1d4e89"/>
<circle cx="149.33" cy="111.87" r="3" fill="#1d4e89"/>
<circle cx="156.51" cy="111.87" r="3" fill="#1d4e89"/>
<circle cx="163.69" cy="164.54" r="3" fill="#1d4e89"/>
<circle cx="170.87" cy="203.76" r="3" fill="#1d4e89"/>
<circle cx="178.05" cy="155.01" r="3" fill="#1d4e89"/>
<circle cx="185.23" cy="240.74" r="3" fill="#1d4e89"/>
<circle cx="192.41" cy="240.74" r="3" fill="#1d4e89"/>
<circle cx="199.59" cy="364.00" r="3" fill="#1d4e89"/>
<circle cx="206.77" cy="203.76" r="3" fill="#1d4e89"/>
<circle cx="213.95" cy="203.76" r="3" fill="#1d4e89"/>
<circle cx="221.13" cy="240.74" r="3" fill="#1d4e89"/>
<circle cx="228.31" cy="240.74" r="3" fill="#1d4e89"/>
<circle cx="235.49" cy="242.98" r="3" fill="#1d4e89"/>
<circle cx="242.67" cy="242.98" r="3" fill="#1d4e89"/>
<circle cx="249.85" cy="240.74" r="3" fill="#1d4e89"/>
<circle cx="257.03" cy="242.98" r="3" fill="#1d4e89"/>
<circle cx="264.21" cy="242.98" r="3" fill="#1d4e89"/>
<circle cx="271.38" cy="242.98" r="3" fill="#1d4e89"/>
<circle cx="278.56" cy="242.98" r="3" fill="#1d4e89"/>
<circle cx="285.74" cy="242.98" r="3" fill="#1d4e89"/>
<circle cx="292.92" cy="242.98" r="3" fill="#1d4e89"/>
<circle cx="300.10" cy="242.98" r="3" fill="#1d4e89"/>
<circle cx="307.28" cy="242.98" r="3" fill="#1d4e89"/>
<circle cx="314.46" cy="242.98" r="3" fill="#1d4e89"/>
<circle cx="321.64" cy="242.98" r="3" fill="#1d4e89"/>
<circle cx="328.82" cy="242.98" r="3" fill="#1d4e89"/>
<circle cx="336.00" cy="242.98" r="3" fill="#1d4e89"/>
<circle cx="343.18" cy="242.98" r="3" fill="#1d4e89"/>
<circle cx="350.36" cy="242.98" r="3" fill="#1d4e89"/>
<circle cx="357.54" cy="242.98" r="3" fill="#1d4e89"/>
<circle cx="364.72" cy="242.98" r="3" fill="#1d4e89"/>
<circle cx="371.90" cy="242.98" r="3" fill="#1d4e89"/>
<circle cx="379.08" cy="242.98" r="3" fill="#1d4e89"/>
<circle cx="386.26" cy="242.98" r="3" fill="#1d4e89"/>
<circle cx="393.44" cy="242.98" r="3" fill="#1d4e89"/>
<circle cx="400.62" cy="242.98" r="3" fill="#1d4e89"/>
<circle cx="407.79" cy="242.98" r="3" fill="#1d4e89"/>
<circle cx="414.97" cy="242.98" r="3" fill="#1d4e89"/>
<circle cx="422.15" cy="242.98" r="3" fill="#1d4e89"/>
<circle cx="429.33" cy="242.98" r="3" fill="#1d4e89"/>
<circle cx="436.51" cy="242.98" r="3" fill="#1d4e89"/>
<circle cx="443.69" cy="242.98" r="3" fill="#1d4e89"/>
<circle cx="450.87" cy="242.98" r="3" fill="#1d4e89"/>
<circle cx="458.05" cy="242.98" r="3" fill="#1d4e89"/>
<circle cx="465.23" cy="242.98" r="3" fill="#1d4e89"/>
<circle cx="472.41" cy="242.98" r="3" fill="#1d4e89"/>
<circle cx="479.59" cy="242.98" r="3" fill="#1d4e89"/>
<circle cx="486.77" cy="242.98" r="3" fill="#1d4e89"/>
<circle cx="493.95" cy="242.98" r="3" fill="#1d4e89"/>
<circle cx="501.13" cy="242.98" r="3" fill="#1d4e89"/>
<circle cx="508.31" cy="242.98" r="3" fill="#1d4e89"/>
<circle cx="515.49" cy="242.98" r="3" fill="#1d4e89"/>
<circle cx="522.67" cy="242.98" r="3" fill="#1d4e89"/>
<circle cx="529.85" cy="242.98" r="3" fill="#1d4e89"/>
<circle cx="537.03" cy="242.98" r="3" fill="#1d4e89"/>
<circle cx="544.21" cy="242.98" r="3" fill="#1d4e89"/>
<circle cx="551.38" cy="242.98" r="3" fill="#1d4e89"/>
<circle cx="558.56" cy="242.98" r="3" fill="#1d4e89"/>
<circle cx="565.74" cy="242.98" r="3" fill="#1d4e89"/>
<circle cx="572.92" cy="242.98" r="3" fill="#1d4e89"/>
<circle cx="580.10" cy="242.98" r="3" fill="#1d4e89"/>
<circle cx="587.28" cy="242.98" r="3" fill="#1d4e89"/>
<circle cx="594.46" cy="242.98" r="3" fill="#1d4e89"/>
<circle cx="601.64" cy="242.98" r="3" fill="#1d4e89"/>
<circle cx="608.82" cy="242.98" r="3" fill="#1d4e89"/>
<circle cx="616.00" cy="242.98" r="3" fill="#1d4e89"/>
<circle cx="623.18" cy="242.98" r="3" fill="#1d4e89"/>
<circle cx="630.36" cy="242.98" r="3" fill="#1d4e89"/>
<circle cx="637.54" cy="242.98" r="3" fill="#1d4e89"/>
<circle cx="644.72" cy="242.98" r="3" fill="#1d4e89"/>
<circle cx="651.90" cy="242.98" r="3" fill="#1d4e89"/>
<circle cx="659.08" cy="242.98" r="3" fill="#1d4e89"/>
<circle cx="666.26" cy="242.98" r="3" fill="#1d4e89"/>
<circle cx="673.44" cy="242.98" r="3" fill="#1d4e89"/>
<circle cx="680.62" cy="242.98" r="3" fill="#1d4e89"/>
<circle cx="687.79" cy="242.98" r="3" fill="#1d4e89"/>
<circle cx="694.97" cy="242.98" r="3" fill="#1d4e89"/>
<circle cx="702.15" cy="242.98" r="3" fill="#1d4e89"/>
<circle cx="709.33" cy="242.98" r="3" fill="#1d4e89"/>
<circle cx="716.51" cy="242.98" r="3" fill="#1d4e89"/>
<circle cx="723.69" cy="242.98" r="3" fill="#1d4e89"/>
<circle cx="730.87" cy="242.98" r="3" fill="#1d4e89"/>
<circle cx="738.05" cy="242.98" r="3" fill="#1d4e89"/>
<circle cx="745.23" cy="242.98" r="3" fill="#1d4e89"/>
<circle cx="752.41" cy="242.98" r="3" fill="#1d4e89"/>
<circle cx="759.59" cy="242.98" r="3" fill="#1d4e89"/>
<circle cx="766.77" cy="242.98" r="3" fill="#1d4e89"/>
<circle cx="773.95" cy="242.98" r="3" fill="#1d4e89"/>
<circle cx="781.13" cy="242.98" r="3" fill="#1d4e89"/>
<circle cx="788.31" cy="242.98" r="3" fill="#1d4e89"/>
<circle cx="795.49" cy="242.98" r="3" fill="#1d4e89"/>
<circle cx="802.67" cy="242.98" r="3" fill="#1d4e89"/>
<circle cx="809.85" cy="242.98" r="3" fill="#1d4e89"/>
<circle cx="817.03" cy="242.98" r="3" fill="#1d4e89"/>
<circle cx="824.21" cy="242.98" r="3" fill="#1d4e89"/>
<circle cx="831.38" cy="242.98" r="3" fill="#1d4e89"/>
<circle cx="838.56" cy="242.98" r="3" fill="#1d4e89"/>
<circle cx="845.74" cy="242.98" r="3" fill="#1d4e89"/>
<circle cx="852.92" cy="242.98" r="3" fill="#1d4e89"/>
<circle cx="860.10" cy="242.98" r="3" fill="#1d4e89"/>
<circle cx="867.28" cy="242.98" r="3" fill="#1d4e89"/>
<circle cx="874.46" cy="242.98" r="3" fill="#1d4e89"/>
<circle cx="881.64" cy="242.98" r="3" fill="#1d4e89"/>
<circle cx="888.82" cy="242.98" r="3" fill="#1d4e89"/>
<circle cx="896.00" cy="242.98" r="3" fill="#1d4e89"/>
<polyline fill="none" stroke="#a15c00" stroke-width="2.5" points="99.08,48.00 106.26,48.00 113.44,48.00 120.62,48.00 127.79,48.00 134.97,48.00 142.15,48.00 149.33,48.00 156.51,48.00 163.69,48.00 170.87,48.00 178.05,48.00 185.23,48.00 192.41,48.00 199.59,48.00 206.77,48.00 213.95,48.00 221.13,48.00 228.31,48.00 235.49,48.00 242.67,48.00 249.85,48.00 257.03,48.00 264.21,48.00 271.38,48.00 278.56,48.00 285.74,48.00 292.92,48.00 300.10,48.00 307.28,48.00 314.46,48.00 321.64,48.00 328.82,48.00 336.00,48.00 343.18,48.00 350.36,48.00 357.54,48.00 364.72,48.00 371.90,48.00 379.08,345.41 386.26,345.41 393.44,345.41 400.62,345.41 407.79,364.00 414.97,345.41 422.15,345.41 429.33,364.00 436.51,364.00 443.69,364.00 450.87,364.00 458.05,364.00 465.23,364.00 472.41,364.00 479.59,364.00 486.77,364.00 493.95,364.00 501.13,364.00 508.31,364.00 515.49,364.00 522.67,364.00 529.85,364.00 537.03,364.00 544.21,364.00 551.38,364.00 558.56,364.00 565.74,364.00 572.92,364.00 580.10,364.00 587.28,364.00 594.46,364.00 601.64,364.00 608.82,364.00 616.00,364.00 623.18,364.00 630.36,364.00 637.54,364.00 644.72,364.00 651.90,364.00 659.08,364.00 666.26,364.00 673.44,364.00 680.62,364.00 687.79,364.00 694.97,364.00 702.15,364.00 709.33,364.00 716.51,364.00 723.69,364.00 730.87,364.00 738.05,364.00 745.23,364.00 752.41,364.00 759.59,364.00 766.77,364.00 773.95,364.00 781.13,364.00 788.31,364.00 795.49,364.00 802.67,364.00 809.85,364.00 817.03,364.00 824.21,364.00 831.38,364.00 838.56,364.00 845.74,364.00 852.92,364.00 860.10,364.00 867.28,364.00 874.46,364.00 881.64,364.00 888.82,364.00 896.00,364.00"/>
<circle cx="99.08" cy="48.00" r="3" fill="#a15c00"/>
<circle cx="106.26" cy="48.00" r="3" fill="#a15c00"/>
<circle cx="113.44" cy="48.00" r="3" fill="#a15c00"/>
<circle cx="120.62" cy="48.00" r="3" fill="#a15c00"/>
<circle cx="127.79" cy="48.00" r="3" fill="#a15c00"/>
<circle cx="134.97" cy="48.00" r="3" fill="#a15c00"/>
<circle cx="142.15" cy="48.00" r="3" fill="#a15c00"/>
<circle cx="149.33" cy="48.00" r="3" fill="#a15c00"/>
<circle cx="156.51" cy="48.00" r="3" fill="#a15c00"/>
<circle cx="163.69" cy="48.00" r="3" fill="#a15c00"/>
<circle cx="170.87" cy="48.00" r="3" fill="#a15c00"/>
<circle cx="178.05" cy="48.00" r="3" fill="#a15c00"/>
<circle cx="185.23" cy="48.00" r="3" fill="#a15c00"/>
<circle cx="192.41" cy="48.00" r="3" fill="#a15c00"/>
<circle cx="199.59" cy="48.00" r="3" fill="#a15c00"/>
<circle cx="206.77" cy="48.00" r="3" fill="#a15c00"/>
<circle cx="213.95" cy="48.00" r="3" fill="#a15c00"/>
<circle cx="221.13" cy="48.00" r="3" fill="#a15c00"/>
<circle cx="228.31" cy="48.00" r="3" fill="#a15c00"/>
<circle cx="235.49" cy="48.00" r="3" fill="#a15c00"/>
<circle cx="242.67" cy="48.00" r="3" fill="#a15c00"/>
<circle cx="249.85" cy="48.00" r="3" fill="#a15c00"/>
<circle cx="257.03" cy="48.00" r="3" fill="#a15c00"/>
<circle cx="264.21" cy="48.00" r="3" fill="#a15c00"/>
<circle cx="271.38" cy="48.00" r="3" fill="#a15c00"/>
<circle cx="278.56" cy="48.00" r="3" fill="#a15c00"/>
<circle cx="285.74" cy="48.00" r="3" fill="#a15c00"/>
<circle cx="292.92" cy="48.00" r="3" fill="#a15c00"/>
<circle cx="300.10" cy="48.00" r="3" fill="#a15c00"/>
<circle cx="307.28" cy="48.00" r="3" fill="#a15c00"/>
<circle cx="314.46" cy="48.00" r="3" fill="#a15c00"/>
<circle cx="321.64" cy="48.00" r="3" fill="#a15c00"/>
<circle cx="328.82" cy="48.00" r="3" fill="#a15c00"/>
<circle cx="336.00" cy="48.00" r="3" fill="#a15c00"/>
<circle cx="343.18" cy="48.00" r="3" fill="#a15c00"/>
<circle cx="350.36" cy="48.00" r="3" fill="#a15c00"/>
<circle cx="357.54" cy="48.00" r="3" fill="#a15c00"/>
<circle cx="364.72" cy="48.00" r="3" fill="#a15c00"/>
<circle cx="371.90" cy="48.00" r="3" fill="#a15c00"/>
<circle cx="379.08" cy="345.41" r="3" fill="#a15c00"/>
<circle cx="386.26" cy="345.41" r="3" fill="#a15c00"/>
<circle cx="393.44" cy="345.41" r="3" fill="#a15c00"/>
<circle cx="400.62" cy="345.41" r="3" fill="#a15c00"/>
<circle cx="407.79" cy="364.00" r="3" fill="#a15c00"/>
<circle cx="414.97" cy="345.41" r="3" fill="#a15c00"/>
<circle cx="422.15" cy="345.41" r="3" fill="#a15c00"/>
<circle cx="429.33" cy="364.00" r="3" fill="#a15c00"/>
<circle cx="436.51" cy="364.00" r="3" fill="#a15c00"/>
<circle cx="443.69" cy="364.00" r="3" fill="#a15c00"/>
<circle cx="450.87" cy="364.00" r="3" fill="#a15c00"/>
<circle cx="458.05" cy="364.00" r="3" fill="#a15c00"/>
<circle cx="465.23" cy="364.00" r="3" fill="#a15c00"/>
<circle cx="472.41" cy="364.00" r="3" fill="#a15c00"/>
<circle cx="479.59" cy="364.00" r="3" fill="#a15c00"/>
<circle cx="486.77" cy="364.00" r="3" fill="#a15c00"/>
<circle cx="493.95" cy="364.00" r="3" fill="#a15c00"/>
<circle cx="501.13" cy="364.00" r="3" fill="#a15c00"/>
<circle cx="508.31" cy="364.00" r="3" fill="#a15c00"/>
<circle cx="515.49" cy="364.00" r="3" fill="#a15c00"/>
<circle cx="522.67" cy="364.00" r="3" fill="#a15c00"/>
<circle cx="529.85" cy="364.00" r="3" fill="#a15c00"/>
<circle cx="537.03" cy="364.00" r="3" fill="#a15c00"/>
<circle cx="544.21" cy="364.00" r="3" fill="#a15c00"/>
<circle cx="551.38" cy="364.00" r="3" fill="#a15c00"/>
<circle cx="558.56" cy="364.00" r="3" fill="#a15c00"/>
<circle cx="565.74" cy="364.00" r="3" fill="#a15c00"/>
<circle cx="572.92" cy="364.00" r="3" fill="#a15c00"/>
<circle cx="580.10" cy="364.00" r="3" fill="#a15c00"/>
<circle cx="587.28" cy="364.00" r="3" fill="#a15c00"/>
<circle cx="594.46" cy="364.00" r="3" fill="#a15c00"/>
<circle cx="601.64" cy="364.00" r="3" fill="#a15c00"/>
<circle cx="608.82" cy="364.00" r="3" fill="#a15c00"/>
<circle cx="616.00" cy="364.00" r="3" fill="#a15c00"/>
<circle cx="623.18" cy="364.00" r="3" fill="#a15c00"/>
<circle cx="630.36" cy="364.00" r="3" fill="#a15c00"/>
<circle cx="637.54" cy="364.00" r="3" fill="#a15c00"/>
<circle cx="644.72" cy="364.00" r="3" fill="#a15c00"/>
<circle cx="651.90" cy="364.00" r="3" fill="#a15c00"/>
<circle cx="659.08" cy="364.00" r="3" fill="#a15c00"/>
<circle cx="666.26" cy="364.00" r="3" fill="#a15c00"/>
<circle cx="673.44" cy="364.00" r="3" fill="#a15c00"/>
<circle cx="680.62" cy="364.00" r="3" fill="#a15c00"/>
<circle cx="687.79" cy="364.00" r="3" fill="#a15c00"/>
<circle cx="694.97" cy="364.00" r="3" fill="#a15c00"/>
<circle cx="702.15" cy="364.00" r="3" fill="#a15c00"/>
<circle cx="709.33" cy="364.00" r="3" fill="#a15c00"/>
<circle cx="716.51" cy="364.00" r="3" fill="#a15c00"/>
<circle cx="723.69" cy="364.00" r="3" fill="#a15c00"/>
<circle cx="730.87" cy="364.00" r="3" fill="#a15c00"/>
<circle cx="738.05" cy="364.00" r="3" fill="#a15c00"/>
<circle cx="745.23" cy="364.00" r="3" fill="#a15c00"/>
<circle cx="752.41" cy="364.00" r="3" fill="#a15c00"/>
<circle cx="759.59" cy="364.00" r="3" fill="#a15c00"/>
<circle cx="766.77" cy="364.00" r="3" fill="#a15c00"/>
<circle cx="773.95" cy="364.00" r="3" fill="#a15c00"/>
<circle cx="781.13" cy="364.00" r="3" fill="#a15c00"/>
<circle cx="788.31" cy="364.00" r="3" fill="#a15c00"/>
<circle cx="795.49" cy="364.00" r="3" fill="#a15c00"/>
<circle cx="802.67" cy="364.00" r="3" fill="#a15c00"/>
<circle cx="809.85" cy="364.00" r="3" fill="#a15c00"/>
<circle cx="817.03" cy="364.00" r="3" fill="#a15c00"/>
<circle cx="824.21" cy="364.00" r="3" fill="#a15c00"/>
<circle cx="831.38" cy="364.00" r="3" fill="#a15c00"/>
<circle cx="838.56" cy="364.00" r="3" fill="#a15c00"/>
<circle cx="845.74" cy="364.00" r="3" fill="#a15c00"/>
<circle cx="852.92" cy="364.00" r="3" fill="#a15c00"/>
<circle cx="860.10" cy="364.00" r="3" fill="#a15c00"/>
<circle cx="867.28" cy="364.00" r="3" fill="#a15c00"/>
<circle cx="874.46" cy="364.00" r="3" fill="#a15c00"/>
<circle cx="881.64" cy="364.00" r="3" fill="#a15c00"/>
<circle cx="888.82" cy="364.00" r="3" fill="#a15c00"/>
<circle cx="896.00" cy="364.00" r="3" fill="#a15c00"/>
<text x="56.00" y="404" text-anchor="middle" font-family="ui-monospace, SFMono-Regular, Menlo, monospace" font-size="10" fill="#444">2026-10-08</text>
<text x="56.00" y="418" text-anchor="middle" font-family="ui-monospace, SFMono-Regular, Menlo, monospace" font-size="9" fill="#777">0842b62</text>
<text x="163.69" y="404" text-anchor="middle" font-family="ui-monospace, SFMono-Regular, Menlo, monospace" font-size="10" fill="#444">2026-10-08</text>
<text x="163.69" y="418" text-anchor="middle" font-family="ui-monospace, SFMono-Regular, Menlo, monospace" font-size="9" fill="#777">d6c35e3</text>
<text x="271.38" y="404" text-anchor="middle" font-family="ui-monospace, SFMono-Regular, Menlo, monospace" font-size="10" fill="#444">2026-10-08</text>
<text x="271.38" y="418" text-anchor="middle" font-family="ui-monospace, SFMono-Regular, Menlo, monospace" font-size="9" fill="#777">5b72ec2</text>
<text x="379.08" y="404" text-anchor="middle" font-family="ui-monospace, SFMono-Regular, Menlo, monospace" font-size="10" fill="#444">2026-10-09</text>
<text x="379.08" y="418" text-anchor="middle" font-family="ui-monospace, SFMono-Regular, Menlo, monospace" font-size="9" fill="#777">07a9c5b</text>
<text x="486.77" y="404" text-anchor="middle" font-family="ui-monospace, SFMono-Regular, Menlo, monospace" font-size="10" fill="#444">2026-10-09</text>
<text x="486.77" y="418" text-anchor="middle" font-family="ui-monospace, SFMono-Regular, Menlo, monospace" font-size="9" fill="#777">9311499</text>
<text x="594.46" y="404" text-anchor="middle" font-family="ui-monospace, SFMono-Regular, Menlo, monospace" font-size="10" fill="#444">2026-10-09</text>
<text x="594.46" y="418" text-anchor="middle" font-family="ui-monospace, SFMono-Regular, Menlo, monospace" font-size="9" fill="#777">ce67365</text>
<text x="702.15" y="404" text-anchor="middle" font-family="ui-monospace, SFMono-Regular, Menlo, monospace" font-size="10" fill="#444">2026-10-09</text>
<text x="702.15" y="418" text-anchor="middle" font-family="ui-monospace, SFMono-Regular, Menlo, monospace" font-size="9" fill="#777">f5f2fd5</text>
<text x="809.85" y="404" text-anchor="middle" font-family="ui-monospace, SFMono-Regular, Menlo, monospace" font-size="10" fill="#444">2026-10-09</text>
<text x="809.85" y="418" text-anchor="middle" font-family="ui-monospace, SFMono-Regular, Menlo, monospace" font-size="9" fill="#777">33f8888</text>
<text x="896.00" y="404" text-anchor="middle" font-family="ui-monospace, SFMono-Regular, Menlo, monospace" font-size="10" fill="#444">2026-10-09</text>
<text x="896.00" y="418" text-anchor="middle" font-family="ui-monospace, SFMono-Regular, Menlo, monospace" font-size="9" fill="#777">289bc59</text>
<rect x="56" y="428" width="12" height="12" fill="#0b6e4f"/>
<text x="72" y="438" font-family="ui-sans-serif, system-ui, sans-serif" font-size="11" fill="#222">curly</text>
<rect x="128" y="428" width="12" height="12" fill="#8b1e3f"/>
<text x="144" y="438" font-family="ui-sans-serif, system-ui, sans-serif" font-size="11" fill="#222">void</text>
<rect x="192.8" y="428" width="12" height="12" fill="#5c4d7a"/>
<text x="208.8" y="438" font-family="ui-sans-serif, system-ui, sans-serif" font-size="11" fill="#222">nnnull</text>
<rect x="56" y="444" width="12" height="12" fill="#2a6f97"/>
<text x="72" y="454" font-family="ui-sans-serif, system-ui, sans-serif" font-size="11" fill="#222">dup-imports</text>
<rect x="171.2" y="444" width="12" height="12" fill="#1d4e89"/>
<text x="187.2" y="454" font-family="ui-sans-serif, system-ui, sans-serif" font-size="11" fill="#222">type Phase-2 oos</text>
<rect x="322.4" y="444" width="12" height="12" fill="#a15c00"/>
<text x="338.4" y="454" font-family="ui-sans-serif, system-ui, sans-serif" font-size="11" fill="#222">boundary Σ</text>
</svg>
